<svg xmlns="http://www.w3.org/2000/svg" xmlns:xlink="http://www.w3.org/1999/xlink" width="250" zoomAndPan="magnify" viewBox="0 0 187.5 52.499999" height="70" preserveAspectRatio="xMidYMid meet" version="1.0"><defs><g/><clipPath id="dcde644a44"><path d="M 4 0 L 183 0 L 183 52.003906 L 4 52.003906 Z M 4 0 " clip-rule="nonzero"/></clipPath><clipPath id="032090c1e6"><path d="M 0.335938 3.0625 L 25 3.0625 L 25 18 L 0.335938 18 Z M 0.335938 3.0625 " clip-rule="nonzero"/></clipPath><clipPath id="5ab34365e4"><path d="M 4 5 L 35 5 L 35 42.171875 L 4 42.171875 Z M 4 5 " clip-rule="nonzero"/></clipPath><clipPath id="3ed28eedce"><rect x="0" width="179" y="0" height="53"/></clipPath></defs><g clip-path="url(#dcde644a44)"><g transform="matrix(1, 0, 0, 1, 4, 0)"><g clip-path="url(#3ed28eedce)"><g fill="#006633" fill-opacity="1"><g transform="translate(33.570048, 41.645941)"><g><path d="M 1.859375 -2.734375 L 1.859375 -31.5625 C 1.859375 -32.207031 3.425781 -32.53125 6.5625 -32.53125 C 9.695312 -32.53125 11.265625 -32.207031 11.265625 -31.5625 L 11.265625 -8.859375 L 18.40625 -8.859375 C 18.957031 -8.859375 19.34375 -8.128906 19.5625 -6.671875 C 19.65625 -5.960938 19.703125 -5.238281 19.703125 -4.5 C 19.703125 -3.757812 19.65625 -3 19.5625 -2.21875 C 19.3125 -0.738281 18.910156 0 18.359375 0 L 4.078125 0 C 3.398438 0 2.859375 -0.273438 2.453125 -0.828125 C 2.054688 -1.390625 1.859375 -2.023438 1.859375 -2.734375 Z M 1.859375 -2.734375 "/></g></g></g><g fill="#006633" fill-opacity="1"><g transform="translate(52.896501, 41.645941)"><g><path d="M 24.09375 0.09375 C 21.40625 0.09375 19.957031 -0.335938 19.75 -1.203125 L 18.21875 -7.1875 L 10.84375 -7.1875 L 9.5 -1.4375 C 9.3125 -0.476562 7.828125 0 5.046875 0 C 3.566406 0 2.46875 -0.0820312 1.75 -0.25 C 1.039062 -0.425781 0.6875 -0.5625 0.6875 -0.65625 L 8.890625 -32.03125 C 8.890625 -32.269531 11.003906 -32.390625 15.234375 -32.390625 C 19.472656 -32.390625 21.59375 -32.269531 21.59375 -32.03125 L 29.609375 -0.609375 C 29.609375 -0.390625 28.894531 -0.21875 27.46875 -0.09375 C 26.050781 0.03125 24.925781 0.09375 24.09375 0.09375 Z M 12 -13.0625 L 16.875 -13.0625 L 14.78125 -22.65625 L 14.5 -22.65625 Z M 12 -13.0625 "/></g></g></g><g fill="#006633" fill-opacity="1"><g transform="translate(82.419248, 41.645941)"><g><path d="M 3.515625 -11.3125 C 4.109375 -10.84375 5.125 -10.207031 6.5625 -9.40625 C 8 -8.601562 9.375 -8.203125 10.6875 -8.203125 C 12 -8.203125 12.65625 -8.710938 12.65625 -9.734375 C 12.65625 -10.191406 12.46875 -10.597656 12.09375 -10.953125 C 11.726562 -11.316406 11.050781 -11.726562 10.0625 -12.1875 C 9.070312 -12.65625 8.328125 -13.019531 7.828125 -13.28125 C 7.335938 -13.539062 6.679688 -13.972656 5.859375 -14.578125 C 5.046875 -15.179688 4.421875 -15.804688 3.984375 -16.453125 C 2.742188 -18.210938 2.125 -20.453125 2.125 -23.171875 C 2.125 -25.890625 3.132812 -28.179688 5.15625 -30.046875 C 7.1875 -31.921875 9.835938 -32.859375 13.109375 -32.859375 C 15.335938 -32.859375 17.394531 -32.617188 19.28125 -32.140625 C 21.164062 -31.660156 22.140625 -31.035156 22.203125 -30.265625 C 22.203125 -30.171875 22.203125 -30.078125 22.203125 -29.984375 C 22.203125 -28.898438 21.859375 -27.53125 21.171875 -25.875 C 20.492188 -24.226562 20.019531 -23.3125 19.75 -23.125 C 17.769531 -24.144531 16 -24.65625 14.4375 -24.65625 C 12.875 -24.65625 12.09375 -24.097656 12.09375 -22.984375 C 12.09375 -22.304688 12.664062 -21.703125 13.8125 -21.171875 C 14.0625 -21.054688 14.414062 -20.890625 14.875 -20.671875 C 15.34375 -20.453125 15.875 -20.195312 16.46875 -19.90625 C 17.070312 -19.613281 17.722656 -19.242188 18.421875 -18.796875 C 19.117188 -18.347656 19.867188 -17.753906 20.671875 -17.015625 C 22.304688 -15.460938 23.125 -13.421875 23.125 -10.890625 C 23.125 -7.585938 22.210938 -4.882812 20.390625 -2.78125 C 18.566406 -0.675781 15.753906 0.40625 11.953125 0.46875 C 10.097656 0.46875 8.421875 0.3125 6.921875 0 C 5.429688 -0.3125 4.128906 -0.914062 3.015625 -1.8125 C 1.898438 -2.707031 1.34375 -3.785156 1.34375 -5.046875 C 1.34375 -6.316406 1.570312 -7.578125 2.03125 -8.828125 C 2.5 -10.078125 2.992188 -10.90625 3.515625 -11.3125 Z M 3.515625 -11.3125 "/></g></g></g><g fill="#006633" fill-opacity="1"><g transform="translate(106.19499, 41.645941)"><g><path d="M 16.265625 -0.734375 C 16.265625 -0.117188 14.734375 0.1875 11.671875 0.1875 C 8.617188 0.1875 7.09375 -0.117188 7.09375 -0.734375 L 7.09375 -24 L 1.53125 -24 C 1 -24 0.628906 -24.710938 0.421875 -26.140625 C 0.328125 -26.816406 0.28125 -27.507812 0.28125 -28.21875 C 0.28125 -28.9375 0.328125 -29.632812 0.421875 -30.3125 C 0.628906 -31.726562 1 -32.4375 1.53125 -32.4375 L 21.6875 -32.4375 C 22.21875 -32.4375 22.585938 -31.726562 22.796875 -30.3125 C 22.890625 -29.632812 22.9375 -28.9375 22.9375 -28.21875 C 22.9375 -27.507812 22.890625 -26.816406 22.796875 -26.140625 C 22.585938 -24.710938 22.21875 -24 21.6875 -24 L 16.265625 -24 Z M 16.265625 -0.734375 "/></g></g></g><g fill="#006633" fill-opacity="1"><g transform="translate(128.626679, 41.645941)"><g><path d="M 17.375 -19.5625 C 17.96875 -19.5625 18.265625 -18.476562 18.265625 -16.3125 C 18.265625 -15.664062 18.191406 -14.898438 18.046875 -14.015625 C 17.910156 -13.140625 17.65625 -12.703125 17.28125 -12.703125 L 11.40625 -12.703125 L 11.40625 -8.0625 L 19.921875 -8.0625 C 20.453125 -8.0625 20.8125 -7.382812 21 -6.03125 C 21.082031 -5.4375 21.125 -4.804688 21.125 -4.140625 C 21.125 -3.484375 21.03125 -2.628906 20.84375 -1.578125 C 20.664062 -0.523438 20.359375 0 19.921875 0 L 4.078125 0 C 2.898438 0 2.3125 -0.476562 2.3125 -1.4375 L 2.3125 -31.234375 C 2.3125 -32.035156 2.671875 -32.4375 3.390625 -32.4375 L 19.96875 -32.4375 C 20.625 -32.4375 20.953125 -31.066406 20.953125 -28.328125 C 20.953125 -25.597656 20.625 -24.234375 19.96875 -24.234375 L 11.40625 -24.234375 L 11.40625 -19.5625 Z M 17.375 -19.5625 "/></g></g></g><g fill="#006633" fill-opacity="1"><g transform="translate(150.64125, 41.645941)"><g><path d="M 11.171875 -0.65625 C 11.171875 -0.15625 9.703125 0.09375 6.765625 0.09375 C 3.796875 0.09375 2.3125 -0.140625 2.3125 -0.609375 L 2.3125 -30.8125 C 2.3125 -31.894531 2.882812 -32.4375 4.03125 -32.4375 L 12.890625 -32.4375 C 21.015625 -32.4375 25.078125 -29.269531 25.078125 -22.9375 C 25.078125 -21.019531 24.703125 -19.28125 23.953125 -17.71875 C 23.210938 -16.164062 22.164062 -14.925781 20.8125 -14 L 26.640625 -4.265625 C 26.398438 -3.523438 25.597656 -2.675781 24.234375 -1.71875 C 22.378906 -0.382812 20.847656 0.28125 19.640625 0.28125 C 18.441406 0.28125 17.550781 -0.148438 16.96875 -1.015625 L 12.609375 -11.171875 L 11.171875 -11.171875 Z M 11.171875 -24.234375 L 11.171875 -17.28125 L 11.40625 -17.28125 C 14.332031 -17.28125 15.796875 -18.503906 15.796875 -20.953125 C 15.796875 -22.054688 15.507812 -22.878906 14.9375 -23.421875 C 14.375 -23.960938 13.441406 -24.234375 12.140625 -24.234375 Z M 11.171875 -24.234375 "/></g></g></g><g clip-path="url(#032090c1e6)"><path fill="#80c04d" d="M 19.722656 13.011719 C 18.070312 9.574219 10.546875 12.433594 8.972656 10.472656 C 12.261719 10.558594 17.34375 9.5625 19.777344 10.28125 C 24.035156 11.539062 22.976562 14.34375 21.839844 17.730469 C 25.746094 15.386719 25.867188 8.089844 19.019531 5.277344 C 13.617188 3.0625 12.046875 6.746094 0.347656 3.84375 C 0.800781 15.398438 15.867188 18.984375 19.722656 13.011719 Z M 19.722656 13.011719 " fill-opacity="1" fill-rule="evenodd"/></g><g clip-path="url(#5ab34365e4)"><path fill="#006633" d="M 22.773438 5.449219 C 23.953125 6.90625 25.015625 7.261719 25.945312 10.273438 C 30.394531 24.652344 4.054688 19.515625 4.144531 41.238281 C 7.394531 37.117188 6.765625 33.136719 17.523438 27.828125 C 19.789062 26.710938 23.511719 24.382812 25.59375 29.3125 C 28.839844 37.015625 19.15625 36.304688 14.625 36.203125 C 15.113281 33.472656 16.707031 32.417969 17.664062 30.734375 C 14.289062 31.683594 7.503906 38.480469 6.957031 42.144531 L 22.496094 42.171875 C 28.507812 42.171875 32.542969 39.820312 34.027344 35.023438 C 34.882812 32.257812 34.441406 29.839844 33.15625 27.570312 C 31.789062 25.15625 30.789062 24.976562 28.058594 23.566406 C 28.457031 22.644531 35.085938 19.3125 32.925781 12.488281 C 31.765625 8.820312 27.753906 5.347656 22.773438 5.449219 Z M 22.773438 5.449219 " fill-opacity="1" fill-rule="evenodd"/></g></g></g></g></svg>